<svg version="1.1" viewBox="0.0 0.0 256.0 256.0" fill="none" stroke="none" stroke-linecap="square" stroke-miterlimit="10" xmlns:xlink="http://www.w3.org/1999/xlink" xmlns="http://www.w3.org/2000/svg"><clipPath id="p.0"><path d="m0 0l256.0 0l0 256.0l-256.0 0l0 -256.0z" clip-rule="nonzero"/></clipPath><g clip-path="url(#p.0)"><path fill="#000000" fill-opacity="0.0" d="m0 0l256.0 0l0 256.0l-256.0 0z" fill-rule="evenodd"/><path fill="#ffffff" d="m9.464567 128.0l0 0c0 -65.46532 53.07012 -118.53543 118.53543 -118.53543l0 0c31.437546 0 61.58751 12.488518 83.817215 34.718224c22.229706 22.229706 34.718216 52.379654 34.718216 83.81721l0 0c0 65.46532 -53.070114 118.53543 -118.53543 118.53543l0 0c-65.46532 0 -118.53543 -53.070114 -118.53543 -118.53543z" fill-rule="evenodd"/><path fill="#4a86e8" d="m51.3084 60.98309l0 0c0 -7.001545 5.675873 -12.677418 12.677418 -12.677418l50.708153 0l0 0c3.3622665 0 6.586815 1.3356514 8.964294 3.7131271c2.377472 2.3774796 3.7131271 5.6020317 3.7131271 8.964291l0 50.708157c0 7.001541 -5.675873 12.677414 -12.677422 12.677414l-50.708153 0c-7.001545 0 -12.677418 -5.675873 -12.677418 -12.677414z" fill-rule="evenodd"/><path fill="#c9daf8" d="m134.6068 60.98309l0 0c0 -7.001545 5.675873 -12.677418 12.677429 -12.677418l50.708145 0l0 0c3.362259 0 6.5868225 1.3356514 8.964294 3.7131271c2.377472 2.3774796 3.7131348 5.6020317 3.7131348 8.964291l0 50.708157c0 7.001541 -5.675873 12.677414 -12.677429 12.677414l-50.708145 0c-7.0015564 0 -12.677429 -5.675873 -12.677429 -12.677414z" fill-rule="evenodd"/><path fill="#4a86e8" d="m51.3084 144.3075l0 0c0 -7.0015564 5.675873 -12.677429 12.677418 -12.677429l50.708153 0l0 0c3.3622665 0 6.586815 1.3356628 8.964294 3.7131348c2.377472 2.377472 3.7131271 5.6020203 3.7131271 8.964294l0 50.708145c0 7.001541 -5.675873 12.677414 -12.677422 12.677414l-50.708153 0c-7.001545 0 -12.677418 -5.675873 -12.677418 -12.677414z" fill-rule="evenodd"/><path fill="#4a86e8" d="m134.6068 144.3075l0 0c0 -7.0015564 5.675873 -12.677429 12.677429 -12.677429l50.708145 0l0 0c3.362259 0 6.5868225 1.3356628 8.964294 3.7131348c2.377472 2.377472 3.7131348 5.6020203 3.7131348 8.964294l0 50.708145c0 7.001541 -5.675873 12.677414 -12.677429 12.677414l-50.708145 0c-7.0015564 0 -12.677429 -5.675873 -12.677429 -12.677414z" fill-rule="evenodd"/></g></svg>